<?xml version="1.0" encoding="UTF-8"?>
<svg xmlns="http://www.w3.org/2000/svg" xmlns:xlink="http://www.w3.org/1999/xlink" width="445.8pt" height="81.4pt" viewBox="0 0 445.8 81.4" version="1.1">
<defs>
<clipPath id="clip1">
  <path d="M 66 21 L 123 21 L 123 81.398438 L 66 81.398438 Z M 66 21 "/>
</clipPath>
<clipPath id="clip2">
  <path d="M 128 21 L 188 21 L 188 81.398438 L 128 81.398438 Z M 128 21 "/>
</clipPath>
<clipPath id="clip3">
  <path d="M 193 0 L 264 0 L 264 81.398438 L 193 81.398438 Z M 193 0 "/>
</clipPath>
<clipPath id="clip4">
  <path d="M 271 21 L 328 21 L 328 81.398438 L 271 81.398438 Z M 271 21 "/>
</clipPath>
<clipPath id="clip5">
  <path d="M 334 21 L 385 21 L 385 81.398438 L 334 81.398438 Z M 334 21 "/>
</clipPath>
<clipPath id="clip6">
  <path d="M 393 0 L 445.800781 0 L 445.800781 81.398438 L 393 81.398438 Z M 393 0 "/>
</clipPath>
</defs>
<g id="surface1">
<path style=" stroke:none;fill-rule:evenodd;fill:rgb(0%,32.542419%,61.521912%);fill-opacity:1;" d="M 51.90625 13.613281 L 15.992188 13.613281 L 15.992188 32.945313 L 49.0625 32.945313 C 51.5 32.945313 53.3125 33.492188 54.5 34.578125 C 55.710938 35.667969 56.308594 37.113281 56.308594 38.898438 C 56.308594 40.679688 55.722656 42.152344 54.535156 43.273438 C 53.351563 44.40625 51.527344 44.96875 49.0625 44.96875 L 15.992188 44.96875 L 15.992188 67.359375 L 53.144531 67.359375 C 55.644531 67.359375 57.535156 67.929688 58.796875 69.105469 C 60.070313 70.261719 60.710938 71.8125 60.710938 73.742188 C 60.710938 75.589844 60.070313 77.113281 58.796875 78.273438 C 57.535156 79.445313 55.644531 80.019531 53.144531 80.019531 L 9.820313 80.019531 C 6.339844 80.019531 3.839844 79.25 2.332031 77.699219 C 0.804688 76.167969 0.0507813 73.675781 0.0507813 70.253906 L 0.0507813 11.089844 C 0.0507813 8.808594 0.390625 6.933594 1.066406 5.472656 C 1.742188 4.042969 2.8125 2.972656 4.257813 2.304688 C 5.707031 1.65625 7.566406 1.316406 9.820313 1.316406 L 51.90625 1.316406 C 54.445313 1.316406 56.347656 1.878906 57.570313 3.011719 C 58.796875 4.128906 59.421875 5.613281 59.421875 7.4375 C 59.421875 9.304688 58.796875 10.789063 57.570313 11.921875 C 56.347656 13.054688 54.445313 13.613281 51.90625 13.613281 Z M 51.90625 13.613281 "/>
<g clip-path="url(#clip1)" clip-rule="nonzero">
<path style=" stroke:none;fill-rule:evenodd;fill:rgb(0%,32.542419%,61.521912%);fill-opacity:1;" d="M 122.167969 63.214844 C 122.167969 65.035156 121.621094 66.992188 120.527344 69.058594 C 119.433594 71.144531 117.777344 73.113281 115.535156 75 C 113.300781 76.875 110.484375 78.386719 107.070313 79.539063 C 103.683594 80.679688 99.839844 81.25 95.59375 81.25 C 86.542969 81.25 79.46875 78.609375 74.390625 73.335938 C 69.308594 68.042969 66.769531 60.984375 66.769531 52.089844 C 66.769531 46.085938 67.929688 40.769531 70.246094 36.15625 C 72.582031 31.546875 75.941406 27.964844 80.339844 25.4375 C 84.757813 22.925781 90.007813 21.660156 96.128906 21.660156 C 99.921875 21.660156 103.398438 22.222656 106.574219 23.332031 C 109.730469 24.433594 112.425781 25.867188 114.625 27.628906 C 116.828125 29.371094 118.507813 31.246094 119.667969 33.242188 C 120.839844 35.21875 121.410156 37.070313 121.410156 38.789063 C 121.410156 40.535156 120.761719 42.03125 119.445313 43.242188 C 118.144531 44.46875 116.566406 45.066406 114.707031 45.066406 C 113.496094 45.066406 112.476563 44.769531 111.671875 44.128906 C 110.875 43.492188 109.964844 42.488281 108.960938 41.09375 C 107.175781 38.371094 105.300781 36.34375 103.34375 34.972656 C 101.40625 33.617188 98.933594 32.941406 95.921875 32.941406 C 91.585938 32.941406 88.09375 34.621094 85.449219 38.007813 C 82.792969 41.394531 81.476563 46.019531 81.476563 51.894531 C 81.476563 54.640625 81.816406 57.179688 82.492188 59.488281 C 83.171875 61.792969 84.160156 63.773438 85.449219 65.390625 C 86.742188 67.027344 88.289063 68.253906 90.113281 69.089844 C 91.949219 69.933594 93.957031 70.351563 96.128906 70.351563 C 99.0625 70.351563 101.578125 69.6875 103.671875 68.316406 C 105.757813 66.957031 107.621094 64.878906 109.234375 62.085938 C 110.132813 60.4375 111.09375 59.148438 112.125 58.222656 C 113.167969 57.285156 114.433594 56.816406 115.941406 56.816406 C 117.726563 56.816406 119.210938 57.507813 120.394531 58.863281 C 121.582031 60.230469 122.167969 61.691406 122.167969 63.214844 Z M 122.167969 63.214844 "/>
</g>
<g clip-path="url(#clip2)" clip-rule="nonzero">
<path style=" stroke:none;fill-rule:evenodd;fill:rgb(0%,32.542419%,61.521912%);fill-opacity:1;" d="M 172.351563 51.570313 C 172.351563 45.589844 171.035156 40.9375 168.402344 37.605469 C 165.769531 34.285156 162.242188 32.617188 157.800781 32.617188 C 154.933594 32.617188 152.40625 33.359375 150.234375 34.84375 C 148.042969 36.335938 146.375 38.515625 145.179688 41.421875 C 144.003906 44.3125 143.421875 47.703125 143.421875 51.570313 C 143.421875 55.386719 144.003906 58.746094 145.152344 61.597656 C 146.324219 64.464844 147.992188 66.667969 150.15625 68.175781 C 152.304688 69.707031 154.871094 70.46875 157.800781 70.46875 C 162.242188 70.46875 165.769531 68.789063 168.402344 65.441406 C 171.035156 62.09375 172.351563 57.46875 172.351563 51.570313 Z M 187.058594 51.570313 C 187.058594 55.933594 186.378906 59.960938 185.023438 63.644531 C 183.667969 67.335938 181.6875 70.496094 179.109375 73.15625 C 176.53125 75.796875 173.457031 77.816406 169.875 79.234375 C 166.292969 80.65625 162.28125 81.359375 157.800781 81.359375 C 153.355469 81.359375 149.375 80.640625 145.828125 79.210938 C 142.289063 77.792969 139.210938 75.730469 136.621094 73.074219 C 134.027344 70.402344 132.058594 67.253906 130.71875 63.617188 C 129.378906 59.984375 128.699219 55.96875 128.699219 51.570313 C 128.699219 47.140625 129.378906 43.0625 130.746094 39.378906 C 132.117188 35.691406 134.054688 32.550781 136.59375 29.933594 C 139.148438 27.332031 142.210938 25.296875 145.828125 23.902344 C 149.449219 22.484375 153.4375 21.765625 157.800781 21.765625 C 162.242188 21.765625 166.265625 22.484375 169.875 23.917969 C 173.496094 25.351563 176.597656 27.390625 179.164063 30.039063 C 181.753906 32.695313 183.707031 35.835938 185.046875 39.480469 C 186.390625 43.128906 187.058594 47.152344 187.058594 51.570313 Z M 187.058594 51.570313 "/>
</g>
<g clip-path="url(#clip3)" clip-rule="nonzero">
<path style=" stroke:none;fill-rule:evenodd;fill:rgb(88.671875%,3.921509%,10.984802%);fill-opacity:1;" d="M 263.917969 55.164063 C 263.917969 57.664063 263.304688 60.378906 262.070313 63.292969 C 260.832031 66.214844 258.890625 69.082031 256.246094 71.890625 C 253.59375 74.691406 250.21875 76.984375 246.101563 78.730469 C 241.984375 80.476563 237.191406 81.359375 231.71875 81.359375 C 227.554688 81.359375 223.777344 80.972656 220.386719 80.171875 C 216.976563 79.394531 213.890625 78.15625 211.125 76.503906 C 208.355469 74.835938 205.800781 72.664063 203.480469 69.921875 C 201.398438 67.453125 199.625 64.703125 198.167969 61.636719 C 196.695313 58.566406 195.585938 55.292969 194.859375 51.84375 C 194.117188 48.351563 193.765625 44.679688 193.765625 40.773438 C 193.765625 34.441406 194.6875 28.777344 196.523438 23.761719 C 198.363281 18.757813 201.007813 14.464844 204.445313 10.90625 C 207.886719 7.339844 211.910156 4.640625 216.519531 2.777344 C 221.144531 0.914063 226.066406 -0.0351563 231.289063 -0.0351563 C 237.648438 -0.0351563 243.328125 1.253906 248.300781 3.789063 C 253.277344 6.335938 257.082031 9.472656 259.726563 13.214844 C 262.394531 16.953125 263.710938 20.480469 263.710938 23.8125 C 263.710938 25.636719 263.058594 27.253906 261.785156 28.644531 C 260.492188 30.039063 258.929688 30.730469 257.097656 30.730469 C 255.0625 30.730469 253.527344 30.261719 252.519531 29.28125 C 251.507813 28.320313 250.359375 26.652344 249.109375 24.292969 C 247.027344 20.386719 244.589844 17.480469 241.777344 15.542969 C 238.964844 13.613281 235.511719 12.648438 231.394531 12.648438 C 224.84375 12.648438 219.632813 15.128906 215.738281 20.101563 C 211.859375 25.089844 209.914063 32.148438 209.914063 41.320313 C 209.914063 47.429688 210.777344 52.523438 212.492188 56.589844 C 214.214844 60.648438 216.652344 63.683594 219.789063 65.6875 C 222.941406 67.695313 226.628906 68.703125 230.863281 68.703125 C 235.433594 68.703125 239.3125 67.554688 242.476563 65.285156 C 245.644531 63.007813 248.027344 59.675781 249.644531 55.285156 C 250.320313 53.203125 251.167969 51.507813 252.171875 50.207031 C 253.175781 48.886719 254.777344 48.253906 257.003906 48.253906 C 258.890625 48.253906 260.519531 48.898438 261.890625 50.230469 C 263.242188 51.542969 263.917969 53.203125 263.917969 55.164063 Z M 263.917969 55.164063 "/>
</g>
<g clip-path="url(#clip4)" clip-rule="nonzero">
<path style=" stroke:none;fill-rule:evenodd;fill:rgb(88.671875%,3.921509%,10.984802%);fill-opacity:1;" d="M 310.5625 51.890625 C 308.414063 52.667969 305.304688 53.519531 301.195313 54.390625 C 297.09375 55.265625 294.253906 55.914063 292.695313 56.316406 C 291.117188 56.734375 289.605469 57.542969 288.183594 58.730469 C 286.753906 59.925781 286.023438 61.609375 286.023438 63.757813 C 286.023438 65.96875 286.871094 67.859375 288.5625 69.421875 C 290.230469 70.972656 292.429688 71.753906 295.152344 71.753906 C 298.046875 71.753906 300.726563 71.101563 303.175781 69.839844 C 305.640625 68.578125 307.4375 66.953125 308.585938 64.929688 C 309.898438 62.714844 310.5625 59.066406 310.5625 53.988281 Z M 311.539063 73.09375 C 307.984375 75.855469 304.558594 77.917969 301.25 79.289063 C 297.941406 80.675781 294.230469 81.367188 290.113281 81.367188 C 286.351563 81.367188 283.054688 80.625 280.214844 79.140625 C 277.359375 77.640625 275.171875 75.636719 273.621094 73.09375 C 272.085938 70.554688 271.320313 67.792969 271.320313 64.828125 C 271.320313 60.828125 272.582031 57.398438 275.132813 54.578125 C 277.671875 51.761719 281.167969 49.84375 285.609375 48.882813 C 286.53125 48.671875 288.835938 48.191406 292.523438 47.433594 C 296.207031 46.679688 299.371094 45.992188 302.003906 45.363281 C 304.636719 44.753906 307.488281 43.980469 310.5625 43.089844 C 310.378906 39.214844 309.613281 36.390625 308.230469 34.582031 C 306.851563 32.769531 304 31.871094 299.675781 31.871094 C 295.933594 31.871094 293.148438 32.378906 291.273438 33.417969 C 289.386719 34.464844 287.769531 36.011719 286.4375 38.085938 C 285.082031 40.167969 284.136719 41.546875 283.589844 42.203125 C 283.042969 42.863281 281.84375 43.1875 280.019531 43.1875 C 278.378906 43.1875 276.945313 42.65625 275.746094 41.609375 C 274.546875 40.542969 273.949219 39.207031 273.949219 37.5625 C 273.949219 34.984375 274.875 32.46875 276.683594 30.03125 C 278.519531 27.597656 281.359375 25.605469 285.226563 24.027344 C 289.082031 22.457031 293.90625 21.667969 299.675781 21.667969 C 306.109375 21.667969 311.175781 22.441406 314.863281 23.953125 C 318.546875 25.464844 321.152344 27.871094 322.679688 31.164063 C 324.1875 34.464844 324.957031 38.828125 324.957031 44.269531 C 324.957031 47.710938 324.929688 50.628906 324.929688 53.023438 C 324.917969 55.421875 324.878906 58.089844 324.839844 61.023438 C 324.839844 63.769531 325.308594 66.632813 326.207031 69.632813 C 327.132813 72.625 327.589844 74.554688 327.589844 75.398438 C 327.589844 76.898438 326.875 78.269531 325.464844 79.503906 C 324.042969 80.742188 322.457031 81.367188 320.660156 81.367188 C 319.160156 81.367188 317.660156 80.648438 316.203125 79.242188 C 314.734375 77.824219 313.183594 75.78125 311.539063 73.09375 Z M 311.539063 73.09375 "/>
</g>
<g clip-path="url(#clip5)" clip-rule="nonzero">
<path style=" stroke:none;fill-rule:evenodd;fill:rgb(88.671875%,3.921509%,10.984802%);fill-opacity:1;" d="M 384.265625 62.203125 C 384.265625 66.234375 383.277344 69.707031 381.3125 72.582031 C 379.34375 75.457031 376.4375 77.648438 372.582031 79.132813 C 368.730469 80.617188 364.050781 81.359375 358.542969 81.359375 C 353.292969 81.359375 348.773438 80.550781 345.019531 78.949219 C 341.269531 77.335938 338.480469 75.332031 336.699219 72.90625 C 334.914063 70.480469 334.015625 68.078125 334.015625 65.628906 C 334.015625 64.023438 334.585938 62.640625 335.734375 61.496094 C 336.878906 60.347656 338.328125 59.777344 340.074219 59.777344 C 341.621094 59.777344 342.804688 60.152344 343.628906 60.894531 C 344.449219 61.664063 345.242188 62.710938 346 64.078125 C 347.484375 66.691406 349.292969 68.632813 351.378906 69.921875 C 353.476563 71.214844 356.328125 71.851563 359.949219 71.851563 C 362.890625 71.851563 365.289063 71.203125 367.164063 69.898438 C 369.054688 68.59375 369.976563 67.109375 369.976563 65.414063 C 369.976563 62.839844 369.003906 60.964844 367.058594 59.777344 C 365.105469 58.601563 361.890625 57.46875 357.421875 56.402344 C 352.378906 55.152344 348.277344 53.839844 345.097656 52.441406 C 341.933594 51.078125 339.410156 49.265625 337.507813 47.007813 C 335.605469 44.742188 334.667969 41.96875 334.667969 38.6875 C 334.667969 35.742188 335.523438 32.96875 337.296875 30.363281 C 339.042969 27.746094 341.636719 25.660156 345.046875 24.097656 C 348.472656 22.546875 352.589844 21.765625 357.421875 21.765625 C 361.226563 21.765625 364.625 22.15625 367.660156 22.957031 C 370.667969 23.746094 373.195313 24.800781 375.214844 26.117188 C 377.234375 27.453125 378.785156 28.917969 379.824219 30.519531 C 380.894531 32.136719 381.414063 33.714844 381.414063 35.253906 C 381.414063 36.929688 380.855469 38.308594 379.734375 39.378906 C 378.601563 40.464844 377 40.992188 374.929688 40.992188 C 373.417969 40.992188 372.140625 40.5625 371.085938 39.707031 C 370.027344 38.84375 368.816406 37.554688 367.460938 35.835938 C 366.34375 34.398438 365.054688 33.253906 363.546875 32.394531 C 362.046875 31.535156 360 31.105469 357.421875 31.105469 C 354.777344 31.105469 352.574219 31.679688 350.816406 32.800781 C 349.058594 33.929688 348.183594 35.332031 348.183594 37.023438 C 348.183594 38.558594 348.824219 39.820313 350.113281 40.800781 C 351.40625 41.789063 353.148438 42.609375 355.324219 43.246094 C 357.511719 43.898438 360.519531 44.679688 364.351563 45.617188 C 368.898438 46.726563 372.59375 48.039063 375.488281 49.589844 C 378.367188 51.128906 380.554688 52.933594 382.039063 55.03125 C 383.511719 57.117188 384.265625 59.515625 384.265625 62.203125 Z M 384.265625 62.203125 "/>
</g>
<g clip-path="url(#clip6)" clip-rule="nonzero">
<path style=" stroke:none;fill-rule:evenodd;fill:rgb(88.671875%,3.921509%,10.984802%);fill-opacity:1;" d="M 408.25 8.890625 L 408.25 30.628906 C 410.101563 28.480469 411.925781 26.777344 413.699219 25.523438 C 415.464844 24.273438 417.433594 23.339844 419.570313 22.714844 C 421.730469 22.089844 424.039063 21.773438 426.5 21.773438 C 430.222656 21.773438 433.523438 22.554688 436.414063 24.128906 C 439.292969 25.707031 441.546875 27.996094 443.199219 31.007813 C 444.242188 32.753906 444.929688 34.71875 445.28125 36.882813 C 445.648438 39.046875 445.832031 41.542969 445.832031 44.371094 L 445.832031 72.457031 C 445.832031 75.382813 445.152344 77.601563 443.8125 79.097656 C 442.46875 80.609375 440.683594 81.351563 438.46875 81.351563 C 433.640625 81.351563 431.214844 78.394531 431.214844 72.457031 L 431.214844 47.691406 C 431.214844 43.019531 430.527344 39.40625 429.132813 36.882813 C 427.738281 34.367188 425.082031 33.105469 421.1875 33.105469 C 418.566406 33.105469 416.207031 33.847656 414.125 35.335938 C 412.042969 36.804688 410.46875 38.839844 409.4375 41.414063 C 408.644531 43.601563 408.25 47.484375 408.25 53.070313 L 408.25 72.457031 C 408.25 75.347656 407.585938 77.558594 406.285156 79.085938 C 404.984375 80.609375 403.171875 81.351563 400.839844 81.351563 C 396.019531 81.351563 393.597656 78.394531 393.597656 72.457031 L 393.597656 8.890625 C 393.597656 5.921875 394.222656 3.679688 395.5 2.210938 C 396.765625 0.722656 398.546875 -0.0195313 400.839844 -0.0195313 C 403.171875 -0.0195313 404.984375 0.722656 406.285156 2.234375 C 407.585938 3.730469 408.25 5.945313 408.25 8.890625 Z M 408.25 8.890625 "/>
</g>
</g>
</svg>
