<svg width="35" height="35" viewBox="0 0 35 35" fill="none" xmlns="http://www.w3.org/2000/svg">
<path d="M28.0449 34.9997C26.5196 34.9997 24.377 34.4481 21.1685 32.6559C17.267 30.4684 14.2491 28.4488 10.3687 24.5793C6.62728 20.8409 4.80659 18.4206 2.25841 13.7846C-0.620299 8.55016 -0.129573 5.80638 0.418976 4.63371C1.07223 3.23213 2.03649 2.39384 3.28284 1.56179C3.99076 1.09807 4.73991 0.700547 5.5208 0.37428C5.59894 0.340685 5.67161 0.308654 5.73647 0.279747C6.12327 0.105526 6.70933 -0.157758 7.45166 0.123495C7.94708 0.309435 8.38936 0.689909 9.08169 1.37351C10.5015 2.77353 12.4417 5.89153 13.1575 7.4228C13.6381 8.45485 13.9561 9.1361 13.9569 9.90018C13.9569 10.7947 13.5068 11.4846 12.9606 12.2291C12.8582 12.369 12.7567 12.5026 12.6582 12.6322C12.0635 13.4135 11.933 13.6393 12.019 14.0424C12.1933 14.8526 13.4927 17.2643 15.6283 19.3948C17.7639 21.5253 20.1066 22.7425 20.92 22.916C21.3404 23.0058 21.571 22.8699 22.3774 22.2542C22.493 22.1659 22.6118 22.0745 22.736 21.9831C23.569 21.3636 24.227 20.9253 25.1006 20.9253H25.1053C25.8656 20.9253 26.5165 21.255 27.5948 21.7988C29.0014 22.5081 32.2138 24.423 33.6226 25.8441C34.3079 26.5348 34.69 26.9754 34.8768 27.4699C35.1581 28.2145 34.8932 28.7981 34.7205 29.1887C34.6916 29.2535 34.6596 29.3246 34.626 29.4035C34.2971 30.1829 33.8971 30.9303 33.4312 31.6364C32.6006 32.8786 31.759 33.8403 30.354 34.4942C29.6325 34.8354 28.843 35.0082 28.0449 34.9997Z" fill="#DAC5A7"/>
</svg>
