<svg width="17" height="25" viewBox="0 0 17 25" fill="none" xmlns="http://www.w3.org/2000/svg">
<path d="M4.53125 24.1875C6.7625 24.1875 8.5625 22.3875 8.5625 20.1562V16.125H4.53125C2.3 16.125 0.5 17.925 0.5 20.1562C0.5 22.3875 2.3 24.1875 4.53125 24.1875Z" fill="#0ACF83"/>
<path d="M0.5 12.0938C0.5 9.8625 2.3 8.0625 4.53125 8.0625H8.5625V16.125H4.53125C2.3 16.125 0.5 14.325 0.5 12.0938Z" fill="#A259FF"/>
<path d="M0.5 4.03125C0.5 1.8 2.3 0 4.53125 0H8.5625V8.0625H4.53125C2.3 8.0625 0.5 6.2625 0.5 4.03125Z" fill="#F24E1E"/>
<path d="M8.5625 0H12.5938C14.825 0 16.625 1.8 16.625 4.03125C16.625 6.2625 14.825 8.0625 12.5938 8.0625H8.5625V0Z" fill="#FF7262"/>
<path d="M16.625 12.0938C16.625 14.325 14.825 16.125 12.5938 16.125C10.3625 16.125 8.5625 14.325 8.5625 12.0938C8.5625 9.8625 10.3625 8.0625 12.5938 8.0625C14.825 8.0625 16.625 9.8625 16.625 12.0938Z" fill="#1ABCFE"/>
</svg>
