<svg width="30" height="38" viewBox="0 0 30 38" fill="none" xmlns="http://www.w3.org/2000/svg">
<path d="M15 18.05C13.5792 18.05 12.2166 17.5496 11.2119 16.6588C10.2073 15.768 9.64286 14.5598 9.64286 13.3C9.64286 12.0402 10.2073 10.832 11.2119 9.94124C12.2166 9.05044 13.5792 8.55 15 8.55C16.4208 8.55 17.7834 9.05044 18.7881 9.94124C19.7927 10.832 20.3571 12.0402 20.3571 13.3C20.3571 13.9238 20.2186 14.5415 19.9494 15.1177C19.6801 15.694 19.2855 16.2177 18.7881 16.6588C18.2906 17.0998 17.7 17.4497 17.0501 17.6884C16.4001 17.9271 15.7035 18.05 15 18.05ZM15 0C11.0218 0 7.20644 1.40125 4.3934 3.89548C1.58035 6.38971 0 9.77262 0 13.3C0 23.275 15 38 15 38C15 38 30 23.275 30 13.3C30 9.77262 28.4196 6.38971 25.6066 3.89548C22.7936 1.40125 18.9782 0 15 0Z" fill="#DAC5A7"/>
</svg>
