<svg width="35" height="28" viewBox="0 0 35 28" fill="none" xmlns="http://www.w3.org/2000/svg">
<path d="M35 6.18625V22.75C35.0001 24.0891 34.4884 25.3776 33.5698 26.352C32.6511 27.3263 31.3948 27.9127 30.058 27.9913L29.75 28H5.25C3.91088 28.0001 2.62235 27.4884 1.64804 26.5698C0.673738 25.6511 0.0873118 24.3948 0.0087502 23.058L0 22.75V6.18625L16.5287 17.206L16.7317 17.3215C16.971 17.4384 17.2337 17.4991 17.5 17.4991C17.7663 17.4991 18.029 17.4384 18.2683 17.3215L18.4713 17.206L35 6.18625Z" fill="#DAC5A7"/>
<path d="M29.75 0C31.64 0 33.2973 0.9975 34.2213 2.49725L17.5 13.6447L0.77875 2.49725C1.21764 1.78469 1.82051 1.18738 2.5371 0.755107C3.25369 0.322837 4.06324 0.0681402 4.89825 0.0122499L5.25 0H29.75Z" fill="#DAC5A7"/>
</svg>
