<svg width="24" height="24" viewBox="0 0 24 24" fill="none" xmlns="http://www.w3.org/2000/svg">
<path d="M23.5161 14.3715C23.3766 13.9488 23.011 13.6545 22.5383 13.5838C22.3154 13.5506 22.0601 13.5647 21.758 13.627C21.2315 13.7356 20.8408 13.777 20.5558 13.785C21.6318 11.9682 22.5068 9.89637 23.0106 7.9461C23.8251 4.79255 23.3898 3.35592 22.8812 2.7061C21.5351 0.986099 19.5712 0.0620993 17.2019 0.0338266C15.938 0.0183721 14.8285 0.267917 14.2497 0.447372C13.7108 0.352281 13.1313 0.29919 12.5233 0.289372C11.3836 0.27119 10.3766 0.519645 9.51612 1.03028C9.03976 0.86919 8.27521 0.642099 7.3923 0.49719C5.31576 0.156281 3.64212 0.421918 2.41794 1.28674C0.935573 2.33383 0.248391 4.1531 0.375482 6.69401C0.415846 7.50074 0.867118 9.95528 1.57766 12.2831C1.98603 13.6211 2.42148 14.7322 2.87194 15.5858C3.51076 16.7963 4.1943 17.5091 4.96166 17.7651C5.39175 17.9084 6.17321 18.0087 6.99512 17.3242C7.0993 17.4504 7.2383 17.5757 7.42276 17.6922C7.65703 17.8399 7.94348 17.9606 8.22957 18.0322C9.26057 18.2899 10.2263 18.2255 11.0502 17.8642C11.0553 18.0107 11.0592 18.1507 11.0625 18.2716C11.0679 18.4677 11.0734 18.66 11.0806 18.8398C11.1294 20.0556 11.2121 21.001 11.4572 21.6625C11.4707 21.6988 11.4888 21.7543 11.5078 21.8131C11.6301 22.1875 11.8346 22.8142 12.3548 23.305C12.8934 23.8135 13.5449 23.9694 14.1417 23.9694C14.4409 23.9694 14.7265 23.9301 14.9769 23.8765C15.8697 23.6851 16.8836 23.3936 17.617 22.3493C18.3105 21.362 18.6476 19.875 18.7086 17.532C18.7165 17.4657 18.7238 17.4025 18.7308 17.3422L18.7453 17.2184L18.9087 17.2327L18.9508 17.2356C19.86 17.277 20.9718 17.0842 21.6547 16.767C22.1942 16.5166 23.9232 15.6038 23.5161 14.3715Z" fill="black"/>
<path d="M21.9614 14.6111C19.2578 15.1688 19.0718 14.2535 19.0718 14.2535C21.9264 10.0177 23.1198 4.6411 22.09 3.32519C19.2806 -0.264355 14.4174 1.43328 14.3362 1.47728L14.3101 1.48201C13.7759 1.3711 13.1782 1.3051 12.5063 1.2941C11.283 1.2741 10.355 1.61483 9.65085 2.14883C9.65085 2.14883 0.975391 -1.42517 1.37894 6.64374C1.46475 8.36028 3.8393 19.6322 6.67148 16.2276C7.70666 14.9826 8.70694 13.9299 8.70694 13.9299C9.20366 14.2599 9.79839 14.4283 10.4218 14.3678L10.4703 14.3267C10.4552 14.4813 10.4621 14.6325 10.4897 14.8115C9.76003 15.6266 9.97448 15.7697 8.51594 16.07C7.04003 16.3742 7.90703 16.9156 8.47312 17.0573C9.15939 17.2288 10.747 17.4719 11.8198 15.9702L11.777 16.1416C12.0628 16.3706 12.2636 17.6309 12.2299 18.7736C12.1963 19.9161 12.1738 20.7006 12.399 21.3133C12.6244 21.926 12.8488 23.3046 14.7663 22.8938C16.3684 22.5505 17.1987 21.6607 17.3142 20.1766C17.3961 19.1215 17.5817 19.2775 17.5933 18.3341L17.7421 17.8876C17.9137 16.4573 17.7694 15.9958 18.7564 16.2105L18.9964 16.2316C19.7228 16.2646 20.6737 16.1146 21.2318 15.8553C22.4334 15.2976 23.1463 14.3665 21.9614 14.6111Z" fill="#336791"/>
<path d="M10.1587 7.41137C9.91503 7.37746 9.69439 7.40883 9.58275 7.49337C9.52003 7.54092 9.50057 7.59601 9.4953 7.63392C9.4813 7.73437 9.55166 7.84546 9.59494 7.90274C9.7173 8.06492 9.89603 8.17637 10.0729 8.20092C10.0986 8.20455 10.1241 8.20619 10.1495 8.20619C10.4445 8.20619 10.7128 7.97646 10.7364 7.80692C10.7659 7.59455 10.4577 7.45292 10.1587 7.41137ZM18.2299 7.4181C18.2067 7.25164 17.9105 7.20419 17.6294 7.24328C17.3487 7.28237 17.0765 7.4091 17.0992 7.57592C17.1174 7.70564 17.3517 7.9271 17.6289 7.9271C17.6524 7.9271 17.676 7.92555 17.6998 7.92219C17.8849 7.89655 18.0208 7.77901 18.0853 7.71128C18.1835 7.60801 18.2404 7.49292 18.2299 7.4181Z" fill="white"/>
<path d="M22.861 14.5477C22.7579 14.236 22.4261 14.1357 21.8748 14.2496C20.238 14.5874 19.6518 14.3534 19.4594 14.2116C20.7317 12.2735 21.7783 9.93055 22.3429 7.74464C22.6104 6.70919 22.7581 5.74755 22.7702 4.96374C22.7836 4.10346 22.637 3.47128 22.3348 3.0851C21.1165 1.52828 19.3283 0.69319 17.1638 0.670281C15.6757 0.653554 14.4184 1.03437 14.1747 1.14146C13.6614 1.01383 13.1018 0.935463 12.4927 0.925463C11.3756 0.907372 10.4099 1.17483 9.61048 1.72001C9.26321 1.59074 8.36575 1.28264 7.26821 1.10583C5.37075 0.800372 3.86294 1.03183 2.78694 1.7941C1.50303 2.70374 0.9103 4.32974 1.02512 6.62683C1.06375 7.39964 1.50412 9.7771 2.19903 12.0539C3.11375 15.0506 4.10812 16.7471 5.1543 17.0961C5.27675 17.1369 5.41794 17.1655 5.57366 17.1655C5.9553 17.1655 6.42321 16.9935 6.91003 16.4082C7.50381 15.6959 8.11803 15.0009 8.75194 14.324C9.16321 14.5447 9.61503 14.668 10.0771 14.6804C10.078 14.6925 10.0792 14.7046 10.0803 14.7166C10.0008 14.8114 9.92287 14.9076 9.84666 15.0052C9.52648 15.4116 9.45985 15.4963 8.42921 15.7085C8.13603 15.769 7.35739 15.9295 7.34594 16.4753C7.33357 17.0716 8.26639 17.3221 8.37266 17.3486C8.74303 17.4414 9.09985 17.4871 9.44012 17.4871C10.2677 17.4871 10.9959 17.2151 11.5779 16.6888C11.56 18.8148 11.6487 20.9097 11.9039 21.548C12.113 22.0706 12.6238 23.3476 14.237 23.3475C14.4738 23.3475 14.7343 23.3199 15.0209 23.2585C16.7047 22.8976 17.4358 22.1534 17.7187 20.5127C17.87 19.6359 18.1298 17.5422 18.2519 16.4191C18.5098 16.4996 18.8417 16.5364 19.2005 16.5363C19.9488 16.5363 20.8124 16.3773 21.3539 16.1259C21.9623 15.8434 23.0601 15.1501 22.861 14.5477ZM18.8514 6.95864C18.8458 7.29019 18.8002 7.59119 18.7518 7.90537C18.6998 8.24328 18.6459 8.59264 18.6324 9.01674C18.619 9.42946 18.6706 9.85855 18.7204 10.2736C18.8211 11.1117 18.9245 11.9746 18.5244 12.8261C18.4579 12.7083 18.3987 12.5866 18.3471 12.4616C18.2974 12.3411 18.1894 12.1475 18.0398 11.8795C17.4581 10.8362 16.0958 8.3931 16.7932 7.39619C17.0009 7.09946 17.5281 6.79437 18.8514 6.95864ZM17.2474 1.34164C19.1868 1.38446 20.721 2.11001 21.8072 3.49801C22.6403 4.56265 21.7229 9.40692 19.0672 13.5861C19.0405 13.5521 19.0137 13.5183 18.9867 13.4846L18.953 13.4426C19.6393 12.3092 19.5051 11.1878 19.3857 10.1936C19.3366 9.78564 19.2902 9.40028 19.302 9.03828C19.3142 8.65464 19.3649 8.32555 19.414 8.00737C19.4743 7.61528 19.5357 7.20955 19.5188 6.73128C19.5314 6.6811 19.5365 6.62183 19.5298 6.55146C19.4867 6.09283 18.963 4.72019 17.8958 3.47783C17.3119 2.79828 16.4606 2.03783 15.2981 1.52492C15.7981 1.42128 16.4818 1.32464 17.2474 1.34164ZM6.39485 15.9798C5.85848 16.6247 5.48812 16.5011 5.3663 16.4606C4.57266 16.1958 3.65175 14.5184 2.83985 11.8584C2.1373 9.55674 1.72675 7.24228 1.69421 6.59328C1.59166 4.54074 2.08921 3.11028 3.17312 2.34155C4.93712 1.09064 7.8373 1.83937 9.00266 2.2191C8.98594 2.23564 8.96848 2.2511 8.95194 2.26792C7.03957 4.19919 7.08494 7.49883 7.08966 7.70055C7.08948 7.77837 7.09603 7.88855 7.10494 8.0401C7.13785 8.5951 7.19912 9.62801 7.03548 10.7977C6.88348 11.8847 7.21857 12.9486 7.95466 13.7167C8.03021 13.7954 8.10961 13.8703 8.19257 13.9411C7.86494 14.292 7.15285 15.068 6.39485 15.9798ZM8.43839 13.2532C7.84512 12.6341 7.57566 11.773 7.69903 10.8905C7.87175 9.65483 7.80803 8.57864 7.77376 8.00046C7.76894 7.91955 7.76466 7.84864 7.76221 7.79274C8.04157 7.54501 9.33621 6.85137 10.2595 7.06292C10.6808 7.15937 10.9375 7.44628 11.0442 7.93974C11.5966 10.4946 11.1173 11.5594 10.7322 12.4151C10.6528 12.5914 10.5778 12.758 10.5138 12.9304L10.4642 13.0636C10.3386 13.4006 10.2217 13.7138 10.1492 14.0113C9.51848 14.0095 8.90494 13.7401 8.43839 13.2532ZM8.53521 16.6986C8.35103 16.6526 8.18539 16.5726 8.08821 16.5064C8.16939 16.4682 8.31385 16.4162 8.56439 16.3646C9.77685 16.115 9.96412 15.9388 10.373 15.4196C10.4668 15.3006 10.573 15.1656 10.7202 15.0013C10.9394 14.7558 11.0398 14.7973 11.2217 14.8727C11.369 14.9336 11.5126 15.1184 11.5708 15.3216C11.5983 15.4176 11.6292 15.5998 11.528 15.7416C10.6738 16.9376 9.42912 16.9223 8.53521 16.6986ZM14.8806 22.6033C13.3973 22.9211 12.8721 22.1643 12.526 21.2991C12.3027 20.7406 12.1928 18.2218 12.2708 15.4403C12.2718 15.4033 12.2665 15.3676 12.2563 15.3339C12.2472 15.2675 12.2333 15.2018 12.2148 15.1374C12.099 14.7326 11.8168 14.3941 11.4781 14.2537C11.3436 14.198 11.0967 14.0957 10.7999 14.1716C10.8632 13.9109 10.9729 13.6165 11.0919 13.2976L11.1418 13.1636C11.198 13.0124 11.2686 12.8557 11.3431 12.6899C11.7461 11.7946 12.298 10.5684 11.699 7.7981C11.4747 6.76046 10.7254 6.25374 9.58957 6.37146C8.90866 6.44192 8.28566 6.71664 7.97494 6.87419C7.90812 6.90801 7.84703 6.94074 7.78994 6.97255C7.87666 5.9271 8.2043 3.97328 9.42994 2.7371C10.2017 1.95892 11.2294 1.57455 12.4816 1.59528C14.9488 1.63564 16.531 2.90183 17.4239 3.95701C18.1934 4.86619 18.61 5.7821 18.7763 6.2761C17.5258 6.14892 16.6754 6.39574 16.2443 7.0121C15.3064 8.35283 16.7574 10.955 17.4548 12.2056C17.5827 12.4348 17.693 12.6329 17.7278 12.7171C17.9548 13.2675 18.2488 13.6349 18.4635 13.9031C18.5293 13.9853 18.5931 14.065 18.6417 14.1346C18.2629 14.2438 17.5827 14.4961 17.6447 15.7571C17.5947 16.3898 17.2391 19.3522 17.0585 20.3988C16.82 21.7816 16.3112 22.2965 14.8806 22.6033ZM21.0718 15.5183C20.6846 15.698 20.0365 15.8328 19.4208 15.8618C18.7408 15.8936 18.3947 15.7856 18.3132 15.7192C18.275 14.9334 18.5675 14.8513 18.877 14.7644C18.9257 14.7507 18.9731 14.7374 19.0189 14.7214C19.0474 14.7446 19.0786 14.7676 19.1128 14.7901C19.6593 15.1508 20.6341 15.1897 22.0104 14.9056L22.0255 14.9026C21.8398 15.0762 21.5222 15.3091 21.0718 15.5183Z" fill="white"/>
</svg>
