<svg width="60" height="60" viewBox="0 0 60 60" fill="none" xmlns="http://www.w3.org/2000/svg">
<rect x="0.5" y="0.5" width="59" height="59" rx="29.5" fill="white" fill-opacity="0.55" stroke="#DAC5A7"/>
<path d="M18.4929 28.7827C18.4588 28.4389 18.3125 28.1719 18.054 27.9815C17.7955 27.7912 17.4446 27.696 17.0014 27.696C16.7003 27.696 16.446 27.7386 16.2386 27.8239C16.0313 27.9062 15.8722 28.0213 15.7614 28.169C15.6534 28.3168 15.5994 28.4844 15.5994 28.6719C15.5938 28.8281 15.6264 28.9645 15.6974 29.081C15.7713 29.1974 15.8722 29.2983 16 29.3835C16.1278 29.4659 16.2756 29.5384 16.4432 29.6009C16.6108 29.6605 16.7898 29.7116 16.9801 29.7543L17.7642 29.9418C18.1449 30.027 18.4943 30.1406 18.8125 30.2827C19.1307 30.4247 19.4063 30.5994 19.6392 30.8068C19.8722 31.0142 20.0526 31.2585 20.1804 31.5398C20.3111 31.821 20.3778 32.1435 20.3807 32.5071C20.3778 33.0412 20.2415 33.5043 19.9716 33.8963C19.7045 34.2855 19.3182 34.5881 18.8125 34.804C18.3097 35.017 17.7031 35.1236 16.9929 35.1236C16.2884 35.1236 15.6747 35.0156 15.152 34.7997C14.6321 34.5838 14.2259 34.2642 13.9332 33.8409C13.6435 33.4148 13.4915 32.8878 13.4773 32.2599H15.2628C15.2827 32.5526 15.3665 32.7969 15.5142 32.9929C15.6648 33.1861 15.8651 33.3324 16.1151 33.4318C16.3679 33.5284 16.6534 33.5767 16.9716 33.5767C17.2841 33.5767 17.5554 33.5312 17.7855 33.4403C18.0185 33.3494 18.1989 33.223 18.3267 33.0611C18.4545 32.8991 18.5185 32.7131 18.5185 32.5028C18.5185 32.3068 18.4602 32.142 18.3438 32.0085C18.2301 31.875 18.0625 31.7614 17.8409 31.6676C17.6222 31.5739 17.3537 31.4886 17.0355 31.4119L16.0852 31.1733C15.3494 30.9943 14.7685 30.7145 14.3423 30.3338C13.9162 29.9531 13.7045 29.4403 13.7074 28.7955C13.7045 28.267 13.8452 27.8054 14.1293 27.4105C14.4162 27.0156 14.8097 26.7074 15.3097 26.4858C15.8097 26.2642 16.3778 26.1534 17.0142 26.1534C17.6619 26.1534 18.2273 26.2642 18.7102 26.4858C19.196 26.7074 19.5739 27.0156 19.8438 27.4105C20.1136 27.8054 20.2528 28.2628 20.2614 28.7827H18.4929ZM24.5451 35.1278C23.8746 35.1278 23.2979 34.9858 22.815 34.7017C22.3349 34.4148 21.9656 34.017 21.707 33.5085C21.4513 33 21.3235 32.4148 21.3235 31.7528C21.3235 31.0824 21.4528 30.4943 21.7113 29.9886C21.9727 29.4801 22.3434 29.0838 22.8235 28.7997C23.3036 28.5128 23.8746 28.3693 24.5366 28.3693C25.1076 28.3693 25.6076 28.473 26.0366 28.6804C26.4656 28.8878 26.805 29.179 27.055 29.554C27.305 29.929 27.4428 30.3693 27.4684 30.875H25.7553C25.707 30.5483 25.5792 30.2855 25.3718 30.0866C25.1673 29.8849 24.8988 29.7841 24.5664 29.7841C24.2852 29.7841 24.0394 29.8608 23.8292 30.0142C23.6218 30.1648 23.4599 30.3849 23.3434 30.6747C23.2269 30.9645 23.1687 31.3153 23.1687 31.7273C23.1687 32.1449 23.2255 32.5 23.3391 32.7926C23.4556 33.0852 23.619 33.3082 23.8292 33.4616C24.0394 33.6151 24.2852 33.6918 24.5664 33.6918C24.7738 33.6918 24.9599 33.6491 25.1246 33.5639C25.2923 33.4787 25.43 33.3551 25.538 33.1932C25.6488 33.0284 25.7212 32.831 25.7553 32.6009H27.4684C27.44 33.1009 27.3036 33.5412 27.0593 33.9219C26.8178 34.2997 26.484 34.5952 26.0579 34.8082C25.6317 35.0213 25.1275 35.1278 24.5451 35.1278ZM28.6307 35V28.4545H30.3906V29.5966H30.4588C30.5781 29.1903 30.7784 28.8835 31.0597 28.6761C31.3409 28.4659 31.6648 28.3608 32.0312 28.3608C32.1222 28.3608 32.2202 28.3665 32.3253 28.3778C32.4304 28.3892 32.5227 28.4048 32.6023 28.4247V30.0355C32.517 30.0099 32.3991 29.9872 32.2486 29.9673C32.098 29.9474 31.9602 29.9375 31.8352 29.9375C31.5682 29.9375 31.3295 29.9957 31.1193 30.1122C30.9119 30.2259 30.7472 30.3849 30.625 30.5895C30.5057 30.794 30.446 31.0298 30.446 31.2969V35H28.6307ZM36.1935 35.1278C35.5316 35.1278 34.9592 34.9872 34.4762 34.706C33.9961 34.4219 33.6254 34.027 33.364 33.5213C33.1026 33.0128 32.9719 32.4233 32.9719 31.7528C32.9719 31.0767 33.1026 30.4858 33.364 29.9801C33.6254 29.4716 33.9961 29.0767 34.4762 28.7955C34.9592 28.5114 35.5316 28.3693 36.1935 28.3693C36.8555 28.3693 37.4265 28.5114 37.9066 28.7955C38.3896 29.0767 38.7617 29.4716 39.0231 29.9801C39.2844 30.4858 39.4151 31.0767 39.4151 31.7528C39.4151 32.4233 39.2844 33.0128 39.0231 33.5213C38.7617 34.027 38.3896 34.4219 37.9066 34.706C37.4265 34.9872 36.8555 35.1278 36.1935 35.1278ZM36.2021 33.7216C36.5032 33.7216 36.7546 33.6364 36.9563 33.4659C37.158 33.2926 37.31 33.0568 37.4123 32.7585C37.5174 32.4602 37.57 32.1207 37.57 31.7401C37.57 31.3594 37.5174 31.0199 37.4123 30.7216C37.31 30.4233 37.158 30.1875 36.9563 30.0142C36.7546 29.8409 36.5032 29.7543 36.2021 29.7543C35.8981 29.7543 35.6424 29.8409 35.435 30.0142C35.2305 30.1875 35.0756 30.4233 34.9705 30.7216C34.8683 31.0199 34.8171 31.3594 34.8171 31.7401C34.8171 32.1207 34.8683 32.4602 34.9705 32.7585C35.0756 33.0568 35.2305 33.2926 35.435 33.4659C35.6424 33.6364 35.8981 33.7216 36.2021 33.7216ZM42.4109 26.2727V35H40.5955V26.2727H42.4109ZM45.6804 26.2727V35H43.8651V26.2727H45.6804Z" fill="#DAC5A7"/>
</svg>
