<svg width="35" height="35" viewBox="0 0 35 35" fill="none" xmlns="http://www.w3.org/2000/svg">
<path d="M29.8995 5.09259C28.287 3.47196 26.3664 2.18702 24.2496 1.31269C22.1328 0.438363 19.8623 -0.00784018 17.5703 0.000104247C7.96734 0.000104247 0.140704 7.78758 0.140704 17.3426C0.140704 20.405 0.949749 23.38 2.46231 26.005L0 35L9.23367 32.585C11.7839 33.9675 14.6508 34.7025 17.5703 34.7025C27.1734 34.7025 35 26.915 35 17.3601C35 12.7226 33.1884 8.36508 29.8995 5.09259ZM17.5703 31.7625C14.9673 31.7625 12.4171 31.0625 10.1834 29.75L9.65578 29.435L4.16834 30.87L5.62814 25.55L5.27638 25.0075C3.83021 22.7097 3.06231 20.0537 3.0603 17.3426C3.0603 9.39758 9.56784 2.9226 17.5528 2.9226C21.4221 2.9226 25.0628 4.42759 27.7889 7.15758C29.1388 8.49452 30.2085 10.0847 30.9361 11.8361C31.6637 13.5874 32.0347 15.465 32.0276 17.3601C32.0628 25.305 25.5553 31.7625 17.5703 31.7625ZM25.5201 20.9825C25.0804 20.7725 22.9347 19.7225 22.5477 19.565C22.1432 19.425 21.8618 19.355 21.5628 19.775C21.2638 20.2125 20.4372 21.1925 20.191 21.4725C19.9447 21.77 19.6809 21.805 19.2412 21.5775C18.8015 21.3675 17.3945 20.895 15.7412 19.425C14.4397 18.2701 13.5779 16.8526 13.3141 16.4151C13.0678 15.9776 13.2789 15.7501 13.5075 15.5226C13.701 15.3301 13.9472 15.0151 14.1583 14.7701C14.3693 14.5251 14.4573 14.3326 14.598 14.0526C14.7387 13.7551 14.6683 13.5101 14.5628 13.3001C14.4573 13.0901 13.5779 10.9551 13.2261 10.0801C12.8744 9.24008 12.505 9.34508 12.2412 9.32758H11.397C11.098 9.32758 10.6407 9.43258 10.2362 9.87008C9.84924 10.3076 8.72362 11.3576 8.72362 13.4926C8.72362 15.6276 10.2889 17.6926 10.5 17.9726C10.7111 18.2701 13.5779 22.645 17.9397 24.5175C18.9774 24.9725 19.7864 25.235 20.4196 25.4275C21.4573 25.76 22.407 25.7075 23.1633 25.6025C24.0075 25.48 25.7487 24.5525 26.1005 23.5375C26.4698 22.5225 26.4698 21.665 26.3467 21.4725C26.2236 21.28 25.9598 21.1925 25.5201 20.9825Z" fill="#DAC5A7"/>
</svg>
