<svg width="34" height="24" viewBox="0 0 34 24" fill="none" xmlns="http://www.w3.org/2000/svg">
<path d="M32.5299 9.14556C31.782 8.62664 30.0682 8.43204 28.7283 8.6915C28.5726 7.39421 27.8559 6.2592 26.6094 5.25379L25.8928 4.73488L25.3941 5.48082C24.771 6.4538 24.4594 7.81596 24.5528 9.11325C24.584 9.56718 24.7398 10.378 25.2072 11.0915C24.771 11.351 23.8673 11.6753 22.6833 11.6753H0.154441L0.092171 11.9347C-0.126034 13.2319 -0.126034 17.2858 2.42912 20.3992C4.36106 22.7667 7.22782 23.9667 10.9982 23.9667C19.1621 23.9667 25.2072 20.0423 28.0428 12.94C29.1646 12.9725 31.564 12.94 32.7793 10.5076C32.8104 10.4427 32.8727 10.313 33.0907 9.82664L33.2154 9.56718L32.5299 9.14556ZM18.1649 0H14.7375V3.24311H18.1649V0ZM18.1649 3.89176H14.7375V7.13488H18.1649V3.89176ZM14.1141 3.89176H10.6867V7.13488H14.1141V3.89176ZM10.0633 3.89176H6.63574V7.13488H10.0633V3.89176ZM6.01252 7.78352H2.58493V11.0266H6.01239L6.01252 7.78352ZM10.0633 7.78352H6.63574V11.0266H10.0633V7.78352ZM14.1141 7.78352H10.6867V11.0266H14.1141V7.78352ZM18.1651 7.78352H14.7374V11.0266H18.1651V7.78352ZM22.2159 7.78352H18.7882V11.0266H22.2159V7.78352Z" fill="#2396ED"/>
</svg>
